<svg width="53" height="53" viewBox="0 0 53 53" fill="none" xmlns="http://www.w3.org/2000/svg">
<path d="M51.7333 10.0564C50.7411 8.93388 49.3267 8.31562 47.7511 8.31562H9.6585L9.2751 5.46894C8.86189 2.40229 6.70603 0 4.36684 0H1.5679C0.70188 0 0 0.695091 0 1.55273C0 2.41038 0.70188 3.10547 1.5679 3.10547H4.36684C4.86988 3.10547 5.93515 4.15882 6.16666 5.87936L10.6548 39.2154C10.8524 40.6849 11.6147 42.0605 12.8012 43.0892C13.6811 43.8522 14.7211 44.3597 15.8105 44.572C15.3666 45.3803 15.1143 46.3063 15.1143 47.2893C15.1143 50.4384 17.7013 53 20.8808 53C24.0603 53 26.6473 50.4384 26.6473 47.2893C26.6473 46.3511 26.4162 45.466 26.0096 44.6844H34.2255C33.8188 45.466 33.5877 46.3511 33.5877 47.2893C33.5877 50.4384 36.1748 53 39.3542 53C42.5337 53 45.1208 50.4384 45.1208 47.2893C45.1208 46.3511 44.8897 45.466 44.483 44.6844H48.591C49.4566 44.6844 50.1589 43.9889 50.1589 43.1316C50.1589 42.274 49.4566 41.5789 48.591 41.5789H16.9623C15.4303 41.5789 13.9653 40.3084 13.7628 38.8046L13.4349 36.3684H25.638C25.6384 36.3684 25.6388 36.3688 25.6392 36.3688C25.6396 36.3688 25.64 36.3684 25.6409 36.3684H35.7138C35.7142 36.3684 35.7146 36.3688 35.7154 36.3688C35.7158 36.3688 35.7158 36.3684 35.7162 36.3684H44.3923C45.8892 36.3684 47.3669 35.8018 48.5534 34.7736C49.7399 33.7449 50.5023 32.3689 50.6999 30.8994L52.9488 14.1954C53.1571 12.6487 52.7255 11.1789 51.7333 10.0564ZM23.5115 47.2893C23.5115 48.7259 22.3315 49.8945 20.8808 49.8945C19.4305 49.8945 18.2501 48.7259 18.2501 47.2893C18.2501 45.853 19.4305 44.6844 20.8808 44.6844C22.3315 44.6844 23.5115 45.853 23.5115 47.2893ZM41.985 47.2893C41.985 48.7259 40.805 49.8945 39.3542 49.8945C37.9035 49.8945 36.7235 48.7259 36.7235 47.2893C36.7235 45.853 37.9035 44.6844 39.3542 44.6844C40.805 44.6844 41.985 45.853 41.985 47.2893ZM49.3737 12.102C49.762 12.5412 49.9278 13.1384 49.8404 13.7846L48.8976 20.7893H38.2294L38.8598 11.4211H47.7511C48.4097 11.4211 48.9858 11.6629 49.3737 12.102ZM27.1075 33.2629L26.4767 23.8947H34.8776L34.2467 33.2629H27.1075ZM26.2676 20.7893L25.6372 11.4211H35.7171L35.0866 20.7893H26.2676ZM22.4944 11.4211L23.1249 20.7893H11.3375L10.0762 11.4211H22.4944ZM11.7556 23.8947H23.3339L23.9648 33.2629H13.0168L11.7556 23.8947ZM44.3923 33.2629H37.3895L38.0203 23.8947H48.4795L47.5918 30.489C47.3893 31.9928 45.9239 33.2629 44.3923 33.2629Z" fill="#C6A7E4"/>
</svg>
