<svg width="31" height="31" viewBox="0 0 31 31" fill="none" xmlns="http://www.w3.org/2000/svg">
<path d="M15.5 30.9983C6.95308 30.9983 0 24.046 0 15.4998C0 6.95364 6.95308 0 15.5 0C24.0469 0 31 6.95383 31 15.5C31 24.0462 24.0467 30.9983 15.5 30.9983ZM15.5 1.4178C7.7348 1.4178 1.41799 7.73462 1.41799 15.4998C1.41799 23.2637 7.7348 29.5805 15.5 29.5805C23.2652 29.5805 29.582 23.2637 29.582 15.4998C29.582 7.73462 23.265 1.4178 15.5 1.4178Z" fill="black"/>
<path d="M15.5003 30.9901C15.1085 30.9901 14.7913 30.6731 14.7913 30.2811V0.801647C14.7913 0.409853 15.1083 0.0926514 15.5003 0.0926514C15.8921 0.0926514 16.2093 0.409667 16.2093 0.801647V30.2811C16.2091 30.6729 15.8921 30.9901 15.5003 30.9901Z" fill="black"/>
<path d="M28.6881 9.52218H2.48194C2.09015 9.52218 1.77295 9.20516 1.77295 8.81318C1.77295 8.42139 2.08996 8.10419 2.48194 8.10419H28.6881C29.0799 8.10419 29.3971 8.4212 29.3971 8.81318C29.3969 9.20516 29.0799 9.52218 28.6881 9.52218Z" fill="black"/>
<path d="M28.5795 23.081H2.49586C2.10407 23.081 1.78687 22.7639 1.78687 22.372C1.78687 21.9802 2.10388 21.663 2.49586 21.663H28.5795C28.9713 21.663 29.2885 21.98 29.2885 22.372C29.2883 22.7638 28.9713 23.081 28.5795 23.081Z" fill="black"/>
<path d="M30.1668 16.2088H0.832042C0.440249 16.2088 0.123047 15.8918 0.123047 15.4998C0.123047 15.108 0.440062 14.7908 0.832042 14.7908H30.1668C30.5586 14.7908 30.8758 15.1078 30.8758 15.4998C30.8756 15.8918 30.5586 16.2088 30.1668 16.2088Z" fill="black"/>
<path d="M12.7519 30.6328C12.5546 30.6328 12.3586 30.5511 12.2187 30.3906C-2.06339 14.0805 12.3274 0.636817 12.4749 0.502552C12.7657 0.240921 13.2115 0.260315 13.4754 0.549545C13.7393 0.838775 13.7184 1.28763 13.4297 1.55057C12.8723 2.06022 -0.0693665 14.2051 13.285 29.4571C13.5433 29.7506 13.5134 30.1992 13.2192 30.4568C13.0842 30.5746 12.918 30.6328 12.7519 30.6328Z" fill="black"/>
<path d="M17.9266 30.7132C17.7342 30.7132 17.5423 30.6356 17.4026 30.482C17.1388 30.1925 17.1597 29.7439 17.4483 29.4809C18.0057 28.9715 30.9487 16.8264 17.593 1.57445C17.3348 1.28093 17.3646 0.832263 17.6589 0.574735C17.9531 0.317207 18.4011 0.344806 18.6593 0.641122C32.9427 16.951 18.5506 30.3947 18.4031 30.5291C18.2673 30.6522 18.0971 30.7132 17.9266 30.7132Z" fill="black"/>
</svg>
